# xmcd CD database file
#
# Track frame offsets:
#	150
#	18442
#	42829
#	64494
#	89139
#	116337
#	146173
#	166312
#	187599
#	206343
#	226681
#	251923
#
# Disc length: 3775 seconds
#
# Revision: 0
# Processed by: cddbd v1.5.2PL0 Copyright (c) Steve Scherf et al.
# Submitted via: CDex 1.51
#
DISCID=a10ebd0c
DTITLE=Silje Nergard - Darkness Out of Blue
DYEAR=2007
DGENRE=Jazz
TTITLE0=Paper Boats
TTITLE1=Darkness out of blue
TTITLE2=The Diner
TTITLE3=Wastelands
TTITLE4=When Judy falls
TTITLE5=The Beachcomber
TTITLE6=What might have been
TTITLE7=Aren´t you cured yet
TTITLE8=Who goes there
TTITLE9=Before you called me yours
TTITLE10=How are you gonna deal with it
TTITLE11=Let me be troubled
EXTD=YEAR: 2007
EXTT0=
EXTT1=
EXTT2=
EXTT3=
EXTT4=
EXTT5=
EXTT6=
EXTT7=
EXTT8=
EXTT9=
EXTT10=
EXTT11=
PLAYORDER=
